<mxfile host="Electron" modified="2024-03-31T01:07:42.929Z" agent="Mozilla/5.0 (Windows NT 10.0; Win64; x64) AppleWebKit/537.36 (KHTML, like Gecko) draw.io/24.1.0 Chrome/120.0.6099.109 Electron/28.1.0 Safari/537.36" etag="sO8yrrxAt1mj1yQofNNp" version="24.1.0" type="device">
  <diagram name="Page-1" id="euezzLX40mQLXLADtUO-">
    <mxGraphModel dx="819" dy="478" grid="1" gridSize="10" guides="1" tooltips="1" connect="1" arrows="1" fold="1" page="1" pageScale="1" pageWidth="1600" pageHeight="900" math="0" shadow="0">
      <root>
        <mxCell id="0" />
        <mxCell id="1" parent="0" />
        <mxCell id="NVZKQTPl5RfNsQLIiv2C-17" value="" style="rounded=0;whiteSpace=wrap;html=1;fillColor=none;dashed=1;" vertex="1" parent="1">
          <mxGeometry x="460" y="290" width="320" height="220" as="geometry" />
        </mxCell>
        <mxCell id="NVZKQTPl5RfNsQLIiv2C-7" style="edgeStyle=orthogonalEdgeStyle;rounded=0;orthogonalLoop=1;jettySize=auto;html=1;startArrow=classic;startFill=1;" edge="1" parent="1" source="NVZKQTPl5RfNsQLIiv2C-1" target="NVZKQTPl5RfNsQLIiv2C-3">
          <mxGeometry relative="1" as="geometry" />
        </mxCell>
        <mxCell id="NVZKQTPl5RfNsQLIiv2C-1" value="Chatter" style="shape=umlActor;verticalLabelPosition=bottom;verticalAlign=top;html=1;outlineConnect=0;" vertex="1" parent="1">
          <mxGeometry x="240" y="310" width="30" height="60" as="geometry" />
        </mxCell>
        <mxCell id="NVZKQTPl5RfNsQLIiv2C-6" style="edgeStyle=orthogonalEdgeStyle;rounded=0;orthogonalLoop=1;jettySize=auto;html=1;startArrow=classic;startFill=1;" edge="1" parent="1" source="NVZKQTPl5RfNsQLIiv2C-3" target="NVZKQTPl5RfNsQLIiv2C-5">
          <mxGeometry relative="1" as="geometry" />
        </mxCell>
        <mxCell id="NVZKQTPl5RfNsQLIiv2C-3" value="Discord&lt;div&gt;Bot API&lt;/div&gt;" style="ellipse;shape=cloud;whiteSpace=wrap;html=1;" vertex="1" parent="1">
          <mxGeometry x="320" y="300" width="120" height="80" as="geometry" />
        </mxCell>
        <mxCell id="NVZKQTPl5RfNsQLIiv2C-14" style="edgeStyle=orthogonalEdgeStyle;rounded=0;orthogonalLoop=1;jettySize=auto;html=1;" edge="1" parent="1" source="NVZKQTPl5RfNsQLIiv2C-5" target="NVZKQTPl5RfNsQLIiv2C-13">
          <mxGeometry relative="1" as="geometry" />
        </mxCell>
        <mxCell id="NVZKQTPl5RfNsQLIiv2C-21" style="edgeStyle=orthogonalEdgeStyle;rounded=0;orthogonalLoop=1;jettySize=auto;html=1;" edge="1" parent="1" source="NVZKQTPl5RfNsQLIiv2C-5" target="NVZKQTPl5RfNsQLIiv2C-20">
          <mxGeometry relative="1" as="geometry" />
        </mxCell>
        <mxCell id="NVZKQTPl5RfNsQLIiv2C-5" value="JubiBotService" style="rounded=0;whiteSpace=wrap;html=1;" vertex="1" parent="1">
          <mxGeometry x="480" y="310" width="120" height="60" as="geometry" />
        </mxCell>
        <mxCell id="NVZKQTPl5RfNsQLIiv2C-9" style="edgeStyle=orthogonalEdgeStyle;rounded=0;orthogonalLoop=1;jettySize=auto;html=1;" edge="1" parent="1" source="NVZKQTPl5RfNsQLIiv2C-8" target="NVZKQTPl5RfNsQLIiv2C-5">
          <mxGeometry relative="1" as="geometry" />
        </mxCell>
        <mxCell id="NVZKQTPl5RfNsQLIiv2C-8" value="JubiBotAPI" style="rounded=0;whiteSpace=wrap;html=1;" vertex="1" parent="1">
          <mxGeometry x="640" y="310" width="120" height="60" as="geometry" />
        </mxCell>
        <mxCell id="NVZKQTPl5RfNsQLIiv2C-11" style="edgeStyle=orthogonalEdgeStyle;rounded=0;orthogonalLoop=1;jettySize=auto;html=1;" edge="1" parent="1" source="NVZKQTPl5RfNsQLIiv2C-10" target="NVZKQTPl5RfNsQLIiv2C-8">
          <mxGeometry relative="1" as="geometry" />
        </mxCell>
        <mxCell id="NVZKQTPl5RfNsQLIiv2C-10" value="JubiBotUI" style="rounded=0;whiteSpace=wrap;html=1;" vertex="1" parent="1">
          <mxGeometry x="640" y="190" width="120" height="60" as="geometry" />
        </mxCell>
        <mxCell id="NVZKQTPl5RfNsQLIiv2C-13" value="sqlite&lt;div&gt;db&lt;/div&gt;" style="shape=cylinder3;whiteSpace=wrap;html=1;boundedLbl=1;backgroundOutline=1;size=15;" vertex="1" parent="1">
          <mxGeometry x="510" y="410" width="60" height="80" as="geometry" />
        </mxCell>
        <mxCell id="NVZKQTPl5RfNsQLIiv2C-16" style="edgeStyle=orthogonalEdgeStyle;rounded=0;orthogonalLoop=1;jettySize=auto;html=1;" edge="1" parent="1" source="NVZKQTPl5RfNsQLIiv2C-15" target="NVZKQTPl5RfNsQLIiv2C-10">
          <mxGeometry relative="1" as="geometry" />
        </mxCell>
        <mxCell id="NVZKQTPl5RfNsQLIiv2C-15" value="Admin" style="shape=umlActor;verticalLabelPosition=bottom;verticalAlign=top;html=1;outlineConnect=0;" vertex="1" parent="1">
          <mxGeometry x="810" y="190" width="30" height="60" as="geometry" />
        </mxCell>
        <mxCell id="NVZKQTPl5RfNsQLIiv2C-20" value="OpenAI&lt;div&gt;API&lt;/div&gt;" style="ellipse;shape=cloud;whiteSpace=wrap;html=1;" vertex="1" parent="1">
          <mxGeometry x="480" y="180" width="120" height="80" as="geometry" />
        </mxCell>
      </root>
    </mxGraphModel>
  </diagram>
</mxfile>
